<svg height="496pt" viewBox="0 0 496 496" width="496pt" xmlns="http://www.w3.org/2000/svg" xmlns:xlink="http://www.w3.org/1999/xlink"><linearGradient id="a" gradientUnits="userSpaceOnUse" x1="248" x2="248" y1="496" y2="0"><stop offset="0" stop-color="#9f2fff"/><stop offset="1" stop-color="#0bb1d3"/></linearGradient><path d="m456 368h-24v-208h-48v-136c0-13.230469-10.769531-24-24-24h-336c-13.230469 0-24 10.769531-24 24v288c0 13.230469 10.769531 24 24 24h168v32h-73.886719l-42.527343 21.265625c-7.144532 3.566406-11.585938 10.75-11.585938 18.734375s4.441406 15.167969 11.574219 18.734375l42.539062 21.265625h73.886719v48h240v-48h24c22.054688 0 40-17.945312 40-40s-17.945312-40-40-40zm-56 32h-272v-16h272zm-272 16h272v16h-272zm288-32h16v48h-16zm-272-368h96v64h-96zm-120 304c-4.414062 0-8-3.59375-8-8v-288c0-4.40625 3.585938-8 8-8h104v80h128v-80h104c4.414062 0 8 3.59375 8 8v136h-176v160zm184-144h208v192h-208zm-128 232c0-1.886719 1.046875-3.574219 2.734375-4.425781l29.265625-14.628907v38.109376l-29.265625-14.628907c-1.6875-.851562-2.734375-2.539062-2.734375-4.425781zm336 72h-208v-32h208zm40-48h-8v-48h8c13.230469 0 24 10.769531 24 24s-10.769531 24-24 24zm-56-240v16h-176v-16zm-160 48h-16v-16h16zm16-16h144v16h-144zm-32 32h176v16h-176zm0 32h176v16h-176zm160 32h16v16h-16zm-160 0h144v16h-144zm-192-32h64v16h-64zm80 0h16v16h-16zm-80-32h96v16h-96zm0 0" fill="url(#a)"/></svg>